<?xml version="1.0" standalone="no"?>
<!DOCTYPE svg PUBLIC "-//W3C//DTD SVG 20010904//EN"
 "http://www.w3.org/TR/2001/REC-SVG-20010904/DTD/svg10.dtd">
<svg version="1.0" xmlns="http://www.w3.org/2000/svg"
 width="200.000000pt" height="200.000000pt" viewBox="0 0 200.000000 200.000000"
 preserveAspectRatio="xMidYMid meet">

<g transform="translate(0.000000,200.000000) scale(0.100000,-0.100000)"
fill="#000" stroke="none">
<path d="M827 1985 c-317 -60 -578 -256 -721 -542 -214 -427 -90 -952 293
-1241 372 -280 888 -266 1246 35 151 127 269 313 322 508 24 89 27 118 27 255
-1 135 -4 168 -27 252 -95 357 -373 630 -732 719 -107 27 -304 34 -408 14z
m334 -121 c281 -53 523 -242 640 -499 59 -131 74 -205 73 -370 -1 -133 -4
-160 -28 -240 -88 -292 -309 -513 -601 -601 -80 -24 -107 -27 -240 -28 -127
-1 -162 3 -228 22 -218 63 -386 183 -506 362 -235 352 -190 813 108 1111 206
206 499 297 782 243z"/>
<path d="M920 1393 c-501 -3 -505 -3 -522 -24 -16 -19 -18 -53 -18 -385 0
-351 1 -365 20 -384 20 -20 33 -20 605 -20 572 0 585 0 605 20 19 19 20 33 20
388 0 202 -4 372 -8 378 -16 24 -54 34 -124 32 -40 -2 -300 -4 -578 -5z m550
-77 c-8 -7 -117 -93 -243 -190 -143 -111 -232 -174 -240 -170 -14 9 -434 340
-457 361 -12 11 66 13 470 13 412 0 482 -2 470 -14z m100 -321 c0 -173 -3
-315 -7 -315 -11 1 -407 290 -411 300 -2 6 404 330 415 330 2 0 3 -142 3 -315z
m-916 145 c108 -85 196 -157 196 -160 -1 -5 -387 -292 -402 -298 -4 -2 -8 137
-8 308 0 191 4 310 9 308 6 -1 98 -73 205 -158z m291 -230 c21 -16 44 -30 52
-30 8 0 32 14 53 31 25 20 43 28 52 23 19 -12 381 -275 392 -285 6 -5 -207 -9
-489 -9 -432 0 -497 2 -485 14 14 13 381 286 385 286 1 0 19 -13 40 -30z"/>
</g>
</svg>
