<?xml version="1.0" standalone="no"?>
<!DOCTYPE svg PUBLIC "-//W3C//DTD SVG 20010904//EN"
 "http://www.w3.org/TR/2001/REC-SVG-20010904/DTD/svg10.dtd">
<svg version="1.0" xmlns="http://www.w3.org/2000/svg"
 width="256.000000pt" height="256.000000pt" viewBox="0 0 256.000000 256.000000"
 preserveAspectRatio="xMidYMid meet">
<g transform="translate(0.000000,256.000000) scale(0.100000,-0.100000)"
fill="#000000" stroke="none">
<path d="M1010 2525 c-251 -56 -456 -170 -643 -358 -158 -158 -268 -358 -329
-602 -20 -79 -23 -114 -22 -295 0 -189 2 -213 26 -302 57 -209 189 -438 253
-438 58 0 58 51 0 144 -123 198 -161 362 -152 654 6 203 32 317 106 467 155
313 447 540 783 609 102 21 357 21 465 1 232 -44 439 -152 595 -309 221 -222
329 -498 329 -841 0 -143 -7 -197 -40 -320 -112 -409 -516 -745 -968 -806
-180 -24 -429 6 -557 66 -158 75 -231 202 -182 319 19 45 33 52 59 29 36 -32
45 -35 76 -19 79 41 211 212 258 334 16 42 16 43 -10 70 -14 15 -31 40 -36 55
-34 90 16 269 136 482 127 227 146 246 253 260 67 9 74 14 111 86 43 86 78
218 81 306 l3 77 -40 9 c-69 15 -182 0 -253 -33 -90 -42 -132 -78 -210 -183
-244 -325 -387 -610 -462 -917 -27 -111 -37 -299 -20 -379 12 -56 11 -61 -9
-89 -64 -90 -71 -213 -20 -320 81 -166 344 -272 678 -272 359 0 666 126 910
372 109 112 175 205 241 343 91 192 130 356 130 554 0 205 -33 347 -125 539
-72 150 -130 235 -233 343 -166 175 -345 282 -568 341 -112 29 -131 31 -334
34 -162 3 -231 0 -280 -11z"/>
<path d="M1680 2167 c0 -1 -5 -40 -10 -86 -14 -110 -51 -222 -99 -301 -21 -36
-37 -68 -35 -72 3 -4 22 -12 44 -18 104 -28 164 33 210 214 24 96 25 137 4
182 -17 35 -114 104 -114 81z"/>
<path d="M1125 854 c-40 -124 -101 -220 -202 -314 l-75 -70 43 -20 c56 -25 83
-25 135 1 105 50 208 231 183 321 -5 19 -24 49 -44 68 -31 30 -35 32 -40 14z"/>
</g>
</svg>
