<svg xmlns="http://www.w3.org/2000/svg" viewBox="0 0 100 125" version="1.1" x="0px" y="0px"><title>Download s21.2</title><desc>Created with Sketch.</desc><g stroke="none" stroke-width="1" fill="none" fill-rule="evenodd" transform="matrix(0, -1, 1, 0, 0.037484, 99.962509)"><g fill="#000000"><path d="M49.0010608,78.9810977 C49.0010608,79.5348098 48.5470797,79.9636289 48.0042468,79.9346701 C48.0042468,79.9346701 48.3350824,79.9563991 48.0042468,79.9346701 C32.3661751,78.9075741 20,65.8979245 20,50 C20,33.4314575 33.4314575,20 50,20 C66.5685425,20 80,33.4314575 80,50 C80,65.8917628 67.6434089,78.897489 52.0139349,79.9334705 C51.6770929,79.9557976 51.9978994,79.934521 51.9978994,79.934521 C51.4461889,79.9616719 50.9989392,79.536616 50.9989392,78.9810977 L50.9989392,42.5005069 C50.9989392,41.9449617 51.3178047,41.81391 51.7053766,42.202018 L61.2767767,51.7866606 C62.2187763,52.7295985 63.6312763,51.3156917 62.6892767,50.3727539 L50.6832666,38.2922411 C50.2959489,37.9025199 49.6687424,37.9026527 49.2826557,38.2922411 L37.3107233,50.3727539 C36.3687237,51.3156917 37.7812237,52.7295985 38.7232233,51.7866606 L48.2946234,42.202018 C48.684778,41.8113236 49.0010608,41.9509468 49.0010608,42.5005069 L49.0010608,78.9810977 Z" transform="translate(50.000000, 49.972164) rotate(-180.000000) translate(-50.000000, -49.972164) "/></g></g></svg>