<svg xmlns="http://www.w3.org/2000/svg" viewBox="0 0 90 80" version="1.1" x="0px" y="0px"><title>Download s21.3</title><desc>Created with Sketch.</desc><g stroke="none" stroke-width="1" fill="none" fill-rule="evenodd" transform="matrix(0, -1, 1, 0, 0.152619, 99.847374)"><g fill="#000000"><path d="M48.0041524,77.9394919 C48.0041524,79.041395 47.1077551,79.8548495 46.010156,79.7370005 C46.010156,79.7370005 46.6577661,79.8234204 45.9944863,79.7349222 C31.3197267,77.776941 20,65.2104024 20,50 C20,33.4314575 33.4314575,20 50,20 C66.5685425,20 80,33.4314575 80,50 C80,65.2059997 68.6868255,77.769666 54.0182558,79.7332193 C53.3509184,79.8225499 53.9864787,79.7374228 53.9864787,79.7374228 C52.8872553,79.8463448 51.9961586,79.0409995 51.9961586,77.9394726 L51.9961586,43.7828818 C51.9961586,43.2319516 52.3109966,43.1010987 52.6967286,43.4879656 L60.5570059,51.3713685 C62.4382388,53.2575234 65.2615852,50.4292911 63.3793543,48.5431361 L51.7178475,36.7325339 C50.7492396,35.7515421 49.1791725,35.7554855 48.2059335,36.7465054 L36.6209567,48.5431361 C34.7387258,50.4292911 37.5610742,53.2575234 39.4433051,51.3713685 L47.3035824,43.4879656 C47.6904965,43.0999131 48.0041524,43.2283018 48.0041524,43.7828818 L48.0041524,77.9394919 Z" transform="translate(50.000000, 49.887400) rotate(-180.000000) translate(-50.000000, -49.887400) "/></g></g></svg>